<svg width="28" height="20" viewBox="0 0 28 20" fill="none" xmlns="http://www.w3.org/2000/svg">
<path d="M0.666992 4.33329C0.666992 3.36083 1.0533 2.4282 1.74093 1.74057C2.42857 1.05293 3.3612 0.666626 4.33366 0.666626H23.667C24.6395 0.666626 25.5721 1.05293 26.2597 1.74057C26.9474 2.4282 27.3337 3.36083 27.3337 4.33329V6.66663H0.666992V4.33329Z" fill="#003F88"/>
<path d="M0.666992 8.66663H27.3337V15.6666C27.3337 16.6391 26.9474 17.5717 26.2597 18.2594C25.5721 18.947 24.6395 19.3333 23.667 19.3333H4.33366C3.3612 19.3333 2.42857 18.947 1.74093 18.2594C1.0533 17.5717 0.666992 16.6391 0.666992 15.6666V8.66663ZM19.0003 13.3333C18.7351 13.3333 18.4808 13.4387 18.2932 13.6262C18.1057 13.8137 18.0003 14.0681 18.0003 14.3333C18.0003 14.5985 18.1057 14.8529 18.2932 15.0404C18.4808 15.2279 18.7351 15.3333 19.0003 15.3333H22.3337C22.5989 15.3333 22.8532 15.2279 23.0408 15.0404C23.2283 14.8529 23.3337 14.5985 23.3337 14.3333C23.3337 14.0681 23.2283 13.8137 23.0408 13.6262C22.8532 13.4387 22.5989 13.3333 22.3337 13.3333H19.0003Z" fill="#003F88"/>
</svg>
