<svg width="50" height="50" viewBox="0 0 50 50" fill="none" xmlns="http://www.w3.org/2000/svg">
<circle cx="25" cy="25" r="25" fill="#003F88"/>
<path d="M21.6473 24.7129C21.6473 23.0271 23.0266 21.6477 24.7124 21.6477C26.3982 21.6477 27.7775 23.0271 27.7775 24.7129C27.7775 26.3987 26.3982 27.778 24.7124 27.778C23.0266 27.778 21.6473 26.3987 21.6473 24.7129ZM18.2756 33.4485L15.9768 31.3029L18.2756 29.0041C17.5093 27.778 17.0496 26.2454 17.0496 24.7129C17.0496 23.1803 17.5093 21.6477 18.2756 20.5749L15.9768 18.2761L18.2756 15.9772L20.4212 18.2761C21.6473 17.5098 23.1798 17.05 24.7124 17.05C26.245 17.05 27.7775 17.5098 29.0036 18.2761L31.3024 15.9772L33.448 18.1228L31.1492 20.4217C31.9155 21.6477 32.3752 23.1803 32.3752 24.7129C32.3752 26.2454 31.9155 27.778 31.1492 29.0041L33.448 31.3029L31.3024 33.4485L29.0036 31.1497C27.7775 31.9159 26.245 32.3757 24.7124 32.3757C23.1798 32.3757 21.6473 31.9159 20.5745 31.1497L18.2756 33.4485ZM24.7124 20.1152C22.107 20.1152 20.1147 22.1075 20.1147 24.7129C20.1147 27.3182 22.107 29.3106 24.7124 29.3106C27.3178 29.3106 29.3101 27.3182 29.3101 24.7129C29.3101 22.1075 27.3178 20.1152 24.7124 20.1152ZM36.9729 9.38721C38.6587 9.38721 40.0381 10.7665 40.0381 12.4523V36.9734C40.0381 38.6592 38.6587 40.0385 36.9729 40.0385H35.4404V41.5711H29.3101V40.0385H20.1147V41.5711H13.9844V40.0385H12.4519C10.766 40.0385 9.38672 38.6592 9.38672 36.9734V12.4523C9.38672 10.7665 10.766 9.38721 12.4519 9.38721H36.9729ZM36.9729 36.9734V12.4523H12.4519V36.9734H36.9729Z" fill="white"/>
</svg>
