<svg width="29" height="29" viewBox="0 0 29 29" fill="none" xmlns="http://www.w3.org/2000/svg">
<path d="M27.8284 1.17141C27.0776 0.422516 26.0604 0.00195313 25 0.00195312C23.9396 0.00195313 22.9224 0.422516 22.1716 1.17141C22.1588 1.18416 22.1464 1.19725 22.1344 1.21066L15.2717 8.85728L14.1214 7.70691C13.8428 7.42832 13.5121 7.20732 13.1481 7.05655C12.7841 6.90578 12.394 6.82817 12 6.82817C11.606 6.82817 11.2159 6.90578 10.8519 7.05655C10.4879 7.20732 10.1572 7.42832 9.87861 7.70691L0.29286 17.2928C0.105343 17.4803 0 17.7347 0 17.9999C0 18.2651 0.105343 18.5195 0.29286 18.707L10.2929 28.707C10.4804 28.8945 10.7348 28.9998 11 28.9998C11.2652 28.9998 11.5195 28.8945 11.7071 28.707L21.293 19.1213C21.5716 18.8427 21.7926 18.512 21.9433 18.148C22.0941 17.784 22.1717 17.3939 22.1717 16.9999C22.1717 16.6059 22.0941 16.2158 21.9433 15.8518C21.7926 15.4878 21.5716 15.1571 21.293 14.8785L20.1426 13.7283L27.7892 6.86553C27.8026 6.85341 27.8157 6.84103 27.8285 6.82828C28.5775 6.0775 28.9981 5.06031 28.998 3.99982C28.998 2.93933 28.5774 1.92215 27.8284 1.17141ZM11 26.5858L9.23473 24.8205L12.4266 21.6288C12.6123 21.4409 12.716 21.1871 12.7153 20.923C12.7145 20.6588 12.6092 20.4057 12.4224 20.2189C12.2356 20.0321 11.9825 19.9268 11.7183 19.926C11.4542 19.9251 11.2004 20.0289 11.0125 20.2145L7.82049 23.4062L5.73473 21.3205L8.92661 18.1288C9.11227 17.9409 9.21604 17.6871 9.21525 17.423C9.21446 17.1588 9.10918 16.9057 8.92239 16.7189C8.73561 16.5321 8.4825 16.4268 8.21833 16.426C7.95417 16.4251 7.70042 16.5289 7.51248 16.7145L4.32048 19.9062L2.41423 17.9999L7.99998 12.4142L16.5857 20.9999L11 26.5858Z" fill="#003F88"/>
</svg>
