<svg width="32" height="32" viewBox="0 0 32 32" fill="none" xmlns="http://www.w3.org/2000/svg">
<path d="M10.3431 15.3219C8.54912 15.975 7.34562 17.8969 7.46662 19.9531C8.03662 19.1581 8.90712 18.4719 9.96162 18.0206L10.3431 15.3219ZM4.79062 18.4375L3.20412 7.21812C3.18962 7.11687 3.21812 7.05437 3.21612 7.0525C6.10412 5.04875 9.37212 3.98938 12.6666 3.98938C12.7471 3.98938 12.8281 4 12.9091 4.00125C13.6066 3.15937 14.4956 2.57438 15.4886 2.37625C16.4331 2.1875 17.3911 2.09188 18.3476 2.04375C17.8481 1.17188 17.1236 0.529375 16.2591 0.35625C15.0636 0.118125 13.8621 0 12.6661 0C8.83312 0 5.05112 1.21375 1.66012 3.56625C0.45162 4.405 -0.19588 6.155 0.0526199 7.91125L1.63912 19.1306C2.35062 24.1631 8.45562 28.0106 11.8616 28.0106C12.0411 28.0106 12.1991 27.9819 12.3621 27.9606C11.6861 26.8931 10.9151 25.4306 10.3871 23.7369C8.00662 22.9256 5.08412 20.5106 4.79062 18.4375ZM9.66812 9.84625C9.63162 9.58875 9.55662 9.35437 9.46462 9.13375C9.05212 9.69063 8.43112 10.1181 7.69862 10.2788C6.96612 10.44 6.26512 10.3038 5.72462 9.95562C5.69862 10.2019 5.69262 10.4544 5.72912 10.7119C5.92112 12.0681 6.95812 12.9738 8.04612 12.735C9.13362 12.4962 9.86012 11.2025 9.66812 9.84625ZM30.3401 7.55625C25.8911 4.47 20.7686 3.34313 15.7411 4.34688C14.3756 4.61938 13.2871 5.98813 13.0391 7.74438L11.4526 18.9638C10.6831 24.4044 16.2166 31.2306 19.3681 31.9231C22.5196 32.6162 29.5916 28.5612 30.3611 23.1206L31.9476 11.9012C32.1961 10.1444 31.5486 8.39437 30.3401 7.55625ZM16.6781 13.6062C16.8701 12.25 17.9071 11.3444 18.9951 11.5837C20.0831 11.8231 20.8091 13.1163 20.6176 14.4725C20.5811 14.73 20.5061 14.9644 20.4141 15.185C20.0016 14.6281 19.3806 14.2006 18.6481 14.04C17.9156 13.8787 17.2146 14.015 16.6741 14.3631C16.6476 14.1163 16.6416 13.8637 16.6781 13.6062ZM20.2016 26.0287C17.4176 25.4169 15.5256 22.3244 15.7496 18.9725C16.7796 20.5688 18.5601 21.8581 20.7241 22.3337C22.8881 22.8094 24.9151 22.3569 26.3206 21.2962C25.6116 24.5425 22.9851 26.6406 20.2016 26.0287ZM26.7166 16.57C26.3041 16.0131 25.6826 15.5856 24.9501 15.425C24.2176 15.2638 23.5166 15.4 22.9761 15.7481C22.9501 15.5019 22.9441 15.2494 22.9806 14.9919C23.1726 13.6356 24.2096 12.73 25.2976 12.9688C26.3851 13.2081 27.1116 14.5013 26.9201 15.8575C26.8836 16.1156 26.8086 16.35 26.7166 16.57Z" fill="#003F88"/>
</svg>
