<svg width="50" height="50" viewBox="0 0 50 50" fill="none" xmlns="http://www.w3.org/2000/svg">
<path d="M49.7218 27.0832C49.5417 26.5511 49.2207 26.0652 48.7859 25.6665C48.4541 25.3477 48.0281 25.1186 47.5568 25.0054C47.7877 25.3304 47.9967 25.7054 48.1527 26.1054C48.3274 26.5137 48.4397 26.9499 48.474 27.4026C48.5266 27.7938 48.5266 28.1892 48.474 28.5804C48.3767 28.2904 48.2271 28.0165 48.031 27.7693C47.6447 27.3044 47.1284 26.9376 46.5336 26.7054C45.8747 26.4412 45.1294 26.4034 44.4411 26.5993C43.7528 26.7953 43.1703 27.211 42.8057 27.7665C42.6497 27.9943 42.5249 28.2415 42.4314 28.5054C38.744 23.0387 32.1087 19.4193 24.5218 19.4193C24.135 19.4193 23.7513 19.4276 23.3707 19.4471C21.017 19.451 18.675 19.7435 16.4109 20.3165C16.2175 19.111 14.4394 16.6665 6.26605 16.6665L8.76171 23.6387C7.19239 24.7683 5.87317 26.1483 4.8716 27.7082L0.0268874 27.7776C0.0268874 27.7776 -0.503441 38.8888 3.14647 38.8888H4.83104C5.97787 40.6197 7.51225 42.1221 9.33884 43.3027L9.38563 49.9999H12.7548C16.8414 49.9999 18.7444 49.9999 18.7444 47.9165V46.8332C21.891 47.3524 25.1187 47.3449 28.2622 46.811L28.1031 47.9165C28.1031 49.9999 30.0373 49.9999 34.1551 49.9999H37.4619V43.361C40.3871 41.5551 42.4922 38.8788 43.3984 35.8138C43.5762 35.7388 43.7541 35.7471 43.935 35.7471C44.1159 35.7471 44.2937 35.7388 44.4716 35.7193C45.2546 35.5915 45.969 35.3193 46.5898 34.9332C47.4288 34.4046 48.0709 33.6645 48.4334 32.8082C48.5208 32.5499 48.5863 32.2776 48.63 31.9971L48.6331 31.9693C49.3225 31.2415 49.7936 30.3304 49.9402 29.3276C50.0677 28.5614 49.9907 27.7792 49.7156 27.0443L49.7218 27.0832ZM10.9766 27.0832C11.5971 27.0832 12.1922 27.3027 12.631 27.6934C13.0698 28.0841 13.3163 28.614 13.3163 29.1665C13.3163 29.7191 13.0698 30.249 12.631 30.6397C12.1922 31.0304 11.5971 31.2499 10.9766 31.2499C10.3561 31.2499 9.76098 31.0304 9.32221 30.6397C8.88343 30.249 8.63693 29.7191 8.63693 29.1665C8.63693 28.614 8.88343 28.0841 9.32221 27.6934C9.76098 27.3027 10.3561 27.0832 10.9766 27.0832ZM18.37 24.9998C18.0177 25.1005 17.6368 25.0868 17.2948 24.9612C16.9527 24.8356 16.6717 24.6062 16.5014 24.3137C16.4483 24.168 16.4306 24.0139 16.4493 23.8616C16.4681 23.7093 16.5229 23.5622 16.6102 23.4302C16.6974 23.2982 16.8152 23.1841 16.9556 23.0955C17.096 23.007 17.2559 22.946 17.4248 22.9165C19.4766 22.4784 21.5824 22.2731 23.692 22.3054L24.0071 22.3026C26.1035 22.3026 28.1374 22.5248 30.0872 22.9471C30.4802 23.0137 30.9045 23.4526 30.9045 23.9804C30.9044 24.0927 30.8843 24.2042 30.8452 24.311C30.736 24.4911 30.582 24.6465 30.3949 24.7654C30.2078 24.8844 29.9926 24.9636 29.7659 24.9971H29.2886C27.5458 24.6234 25.7591 24.4369 23.9666 24.4415H23.6889C21.8016 24.4415 19.9672 24.6443 18.2109 25.0276L18.37 24.9998ZM45.5104 33.1387C45.0895 33.4114 44.6074 33.5999 44.0972 33.6915L43.701 33.6943V33.3332V32.4721C44.2158 32.8193 44.8677 33.0276 45.5728 33.0276H45.6383L45.5104 33.1387ZM45.7599 31.2499C45.47 31.286 45.1746 31.2387 44.917 31.1148C44.6594 30.9908 44.453 30.7968 44.3281 30.561C44.1851 30.3184 44.1107 30.0485 44.1112 29.7745C44.1118 29.5006 44.1873 29.2309 44.3312 28.9887C44.4795 28.8059 44.6979 28.6779 44.9451 28.6287C45.1922 28.5796 45.4511 28.6128 45.6726 28.7221C45.9553 28.8187 46.1984 28.9893 46.3699 29.2115C46.5415 29.4337 46.6333 29.6969 46.6334 29.9665V29.9693C46.6951 30.3545 46.694 30.7455 46.6303 31.1304C46.3406 31.1801 46.0455 31.2006 45.7506 31.1915L45.7599 31.2499Z" fill="#003F88"/>
<path d="M25.0002 11.1112H20.8335V10.5894H21.8752V7.24382H20.8335L23.1252 5.55566H23.9585V10.5894H25.0002V11.1112Z" fill="#003F88"/>
<path d="M22.9169 3.08642C23.8292 3.08669 24.7324 3.24668 25.5751 3.55725C26.4178 3.86782 27.1835 4.32288 27.8283 4.89647C28.4732 5.47005 28.9846 6.15092 29.3334 6.9002C29.6823 7.64947 29.8617 8.45249 29.8614 9.26338C29.861 10.0743 29.6811 10.8772 29.3317 11.6263C28.9823 12.3753 28.4703 13.0559 27.8251 13.6291C27.1798 14.2023 26.4138 14.6569 25.5709 14.967C24.7279 15.2771 23.8245 15.4365 22.9123 15.4362C21.0699 15.4357 19.3032 14.7846 18.0009 13.6262C16.6985 12.4678 15.9672 10.897 15.9678 9.25927C15.9685 7.62158 16.7009 6.05119 18.0041 4.89356C19.3073 3.73592 21.0745 3.08588 22.9169 3.08642ZM22.9169 0C20.1542 0 17.5047 0.975528 15.5512 2.71198C13.5977 4.44843 12.5002 6.80356 12.5002 9.25927C12.5002 11.715 13.5977 14.0701 15.5512 15.8066C17.5047 17.543 20.1542 18.5185 22.9169 18.5185C25.6796 18.5185 28.3291 17.543 30.2826 15.8066C32.2361 14.0701 33.3336 11.715 33.3336 9.25927C33.3336 6.80356 32.2361 4.44843 30.2826 2.71198C28.3291 0.975528 25.6796 0 22.9169 0Z" fill="#003F88"/>
</svg>
