<svg width="28" height="29" viewBox="0 0 28 29" fill="none" xmlns="http://www.w3.org/2000/svg">
<path d="M6 8.19992L3.16 5.37325L5.04 3.49325L7.86667 6.33325L6 8.19992ZM15.3333 0.333252V4.33325H12.6667V0.333252H15.3333ZM24.84 5.37325L22 8.19992L20.1333 6.33325L22.96 3.49325L24.84 5.37325ZM4 12.9999V15.6666H0V12.9999H4ZM24 12.9999H28V15.6666H24V12.9999ZM6 25.6666H22C22.7072 25.6666 23.3855 25.9475 23.8856 26.4476C24.3857 26.9477 24.6667 27.626 24.6667 28.3333H3.33333C3.33333 27.626 3.61428 26.9477 4.11438 26.4476C4.61448 25.9475 5.29276 25.6666 6 25.6666ZM14 5.66659C16.1217 5.66659 18.1566 6.50944 19.6569 8.00973C21.1571 9.51002 22 11.5449 22 13.6666V24.3333H6V13.6666C6 11.5449 6.84285 9.51002 8.34315 8.00973C9.84344 6.50944 11.8783 5.66659 14 5.66659Z" fill="#003F88"/>
</svg>
